# xmcd CD database file
#
# Track frame offsets:
#	150
#	56278
#	149603
#	208620
#
# Disc length: 3914 seconds
#
# Revision: 0
# Processed by: cddbd v1.5.1PL2 Copyright (c) Steve Scherf et al.
# Submitted via: CDex 1.51
#
DISCID=370f4804
DTITLE=植田佳奈ほか - 集英社ドラマCD10「マリア様がみてる 〜いつしか年も〜」
DYEAR=2006
DGENRE=Anime
TTITLE0=直前の卒業生
TTITLE1=江利子・聖・蓉子
TTITLE2=送辞と答辞
TTITLE3=光の中へ
EXTD=YEAR: 2006
EXTT0=
EXTT1=
EXTT2=
EXTT3=
PLAYORDER=
